# AST/ASF file generated using VICON BodyLanguage
# -----------------------------------------------
:version 1.10
:name VICON
:units
  mass 1.0
  length 0.45
  angle deg
:documentation
   .ast/.asf automatically generated from VICON data using
   VICON BodyBuilder and BodyLanguage model FoxedUp or BRILLIANT.MOD
:root
   order TX TY TZ RX RY RZ
   axis XYZ
   position 0 0 0  
   orientation 0 0 0 
:bonedata
  begin
     id 1 
     name lhipjoint
     direction 0.521452 -0.77106 0.36545 
     length 2.0933 
     axis 0 0 0  XYZ
  end
  begin
     id 2 
     name lfemur
     direction 0.34202 -0.939693 0  
     length 6.83441  
     axis 0 0 20  XYZ
    dof rx ry rz
    limits (-160.0 20.0)
           (-70.0 70.0)
           (-60.0 70.0)
  end
  begin
     id 3 
     name ltibia
     direction 0.34202 -0.939693 0   
     length 7.28749   
     axis 0 0 20   XYZ
    dof rx
    limits (-10.0 170.0)
  end
  begin
     id 4 
     name lfoot
     direction 0.100608 -0.276418 0.955757   
     length 1.52195   
     axis -90 7.62852e-016 20   XYZ
    dof rx rz
    limits (-45.0 90.0)
           (-70.0 20.0)
  end
  begin
     id 5 
     name ltoes
     direction 1.53558e-011 -4.21907e-011 1   
     length 0.770459   
     axis -90 7.62852e-016 20   XYZ
    dof rx
    limits (-90.0 20.0)
  end
  begin
     id 6 
     name rhipjoint
     direction -0.488071 -0.788702 0.373812   
     length 2.04648  
     axis 0 0 0  XYZ 
  end
  begin
     id 7 
     name rfemur
     direction -0.34202 -0.939693 0   
     length 6.92583   
     axis 0 0 -20   XYZ
    dof rx ry rz
    limits (-160.0 20.0)
           (-70.0 70.0)
           (-70.0 60.0)
  end
  begin
     id 8 
     name rtibia
     direction -0.34202 -0.939693 0   
     length 7.41043   
     axis 0 0 -20   XYZ
    dof rx
    limits (-10.0 170.0)
 end
 begin
     id 9 
     name rfoot
     direction -0.0784433 -0.215521 0.973343   
     length 1.67708  
     axis -90 -7.62852e-016 -20   XYZ
    dof rx rz
    limits (-45.0 90.0)
           (-20.0 70.0)
  end
  begin
     id 10 
     name rtoes
     direction -1.53551e-011 -4.21842e-011 1   
     length 0.849787   
     axis -90 -7.62852e-016 -20   XYZ
    dof rx
    limits (-90.0 20.0)
  end
  begin
     id 11 
     name lowerback
     direction -0.0122332 0.997575 -0.0685192   
     length 1.98724   
     axis 0 0 0   XYZ
    dof rx ry rz
    limits (-20.0 45.0)
           (-30.0 30.0)
           (-30.0 30.0)
  end
  begin
     id 12 
     name upperback
     direction 0.0182347 0.999724 -0.0148421   
     length 1.99029   
     axis 0 0 0   XYZ
    dof rx ry rz
    limits (-20.0 45.0)
           (-30.0 30.0)
           (-30.0 30.0)
  end
  begin
     id 13 
     name thorax
     direction 0.0242908 0.99956 0.0170184   
     length 1.99573   
     axis 0 0 0   XYZ
    dof rx ry rz
    limits (-20.0 45.0)
           (-30.0 30.0)
           (-30.0 30.0)
  end
  begin
     id 14 
     name lowerneck
     direction 0.0654488 0.985533 0.156338   
     length 1.4285   
     axis 0 0 0   XYZ
    dof rx ry rz
    limits (-20.0 45.0)
           (-30.0 30.0)
           (-30.0 30.0)
  end
  begin
     id 15 
     name upperneck
     direction -0.02953 0.998556 -0.0448842   
     length 1.44709   
     axis 0 0 0   XYZ
    dof rx ry rz
    limits (-20.0 45.0)
           (-30.0 30.0)
           (-30.0 30.0)
  end
  begin
     id 16
     name head
     direction -0.0155588 0.999386 -0.0314063  
     length 1.44689  
     axis 0 0 0   XYZ
    dof rx ry rz
    limits (-20.0 45.0)
           (-30.0 30.0)
           (-30.0 30.0)
  end
  begin
     id 17 
     name lclavicle
     direction 0.968229 0.236071 -0.0824755  
     length 3.60593  
     axis 0 0 0   XYZ
    dof ry rz
    limits (-20.0 10.0)
           (0.0 20.0)
  end
  begin
     id 18 
     name lhumerus
     direction 1 -4.48968e-011 7.8138e-029   
     length 5.06035   
     axis 180 -30 -90   XYZ
    dof rx ry rz
    limits (-60.0 90.0)
           (-90.0 90.0)
           (-90.0 90.0)
  end
  begin
     id 19
     name lradius
     direction 1 -4.48967e-011 9.02887e-028   
     length 3.1478   
     axis 180 -30 -90   XYZ
    dof rx
    limits (-10.0 170.0)
  end
  begin
     id 20
     name lwrist
     direction 1 -4.48961e-011 7.20928e-028   
     length 1.5739   
     axis -5.52449e-016 90 90   XYZ
    dof ry
    limits (-180.0 0.0)
 end
  begin
     id 21 
     name lhand
     direction 1 -4.48972e-011 1.44186e-027   
     length 0.606747   
     axis -9.20027e-016 90 90   XYZ
    dof rx rz
    limits (-90.0 90.0)
           (-45.0 45.0)
  end
  begin
     id 22 
     name lfingers
     direction 1 -4.48943e-011 2.88371e-027   
     length 0.489175   
     axis -1.84005e-015 90 90   XYZ
    dof rx
    limits (0.0 90.0)
  end
  begin
     id 23
     name lthumb
     direction 0.707107 -6.34917e-011 0.707107   
     length 0.70236   
     axis -90 45 2.85299e-015   XYZ
    dof rx rz
    limits (-45.0 45.0)
           (-45.0 45.0)
  end
  begin
     id 24 
     name rclavicle
     direction -0.978165 0.207816 0.0022268   
     length 3.35425  
     axis 0 0 0   XYZ 
    dof ry rz
    limits (-10.0 20.0)
           (-20.0 0.0)
  end
  begin
     id 25 
     name rhumerus
     direction -1 -4.48964e-011 -4.02159e-027  
     length 5.12273   
     axis 180 30 90   XYZ
    dof rx ry rz
    limits (-90.0 60.0)
           (-90.0 90.0)
           (-90.0 90.0)
  end
  begin
     id 26 
     name rradius
     direction -1 -4.48966e-011 1.62746e-027   
     length 3.422   
     axis 180 30 90   XYZ
    dof rx
    limits (-10.0 170.0)
  end
  begin
     id 27 
     name rwrist
     direction -1 -4.4896e-011 7.20928e-028   
     length 1.711   
     axis -5.52449e-016 -90 -90   XYZ
    dof ry
    limits (-180.0 0.0)
  end
  begin
     id 28
     name rhand
     direction -1 -4.48979e-011 1.44186e-027   
     length 0.704599   
     axis -9.20027e-016 -90 -90   XYZ
    dof rx rz
    limits (-90.0 90.0)
           (-45.0 45.0)
  end
  begin
     id 29
     name rfingers
     direction -1 -4.48962e-011 2.88371e-027   
     length 0.568066   
     axis -1.84005e-015 -90 -90   XYZ
    dof rx
    limits (0.0 90.0)
  end
  begin
     id 30
     name rthumb
     direction -0.707107 -6.34949e-011 0.707107   
     length 0.815633   
     axis -90 -45 -2.85299e-015   XYZ
    dof rx rz
    limits (-45.0 45.0)
           (-45.0 45.0)
  end
:hierarchy
  begin
    root lhipjoint rhipjoint lowerback
    lhipjoint lfemur
    lfemur ltibia
    ltibia lfoot
    lfoot ltoes
    rhipjoint rfemur
    rfemur rtibia
    rtibia rfoot
    rfoot rtoes
    lowerback upperback
    upperback thorax
    thorax lowerneck lclavicle rclavicle
    lowerneck upperneck
    upperneck head
    lclavicle lhumerus
    lhumerus lradius
    lradius lwrist
    lwrist lhand lthumb
    lhand lfingers
    rclavicle rhumerus
    rhumerus rradius
    rradius rwrist
    rwrist rhand rthumb
    rhand rfingers
  end

#!OML:ASF E:\id_vita\Project 1\Capture day 1\Session 1\Male1.ASF
:FULLY-SPECIFIED
:DEGREES
112
root -8.53355 15.7086 -0.259817 357.746 84.5287 355.429
lowerback -6.91625 1.52316 -0.942928
upperback 0.486491 2.14007 -0.597704
thorax 4.37101 1.04773 0.136887
lowerneck -11.3742 1.9486 4.3706
upperneck 7.26701 2.10181 -1.74212
head 4.08708 1.06334 -1.09736
rclavicle -6.64376e-015 -7.95139e-016
rhumerus -13.7723 -2.21627 -89.4244
rradius 36.8438
rwrist -3.81016
rhand -21.7691 36.0945
rfingers 7.12502
rthumb 4.63175 6.16514
lclavicle -6.64376e-015 -7.95139e-016
lhumerus -132.351 21.443 -70.9631
lradius 10.7049
lwrist -118.236
lhand -11.3544 45.3735
lfingers 7.12502
lthumb 14.6791 74.8338
rfemur 13.3103 0.381692 17.7549
rtibia 40.3655
rfoot 17.7902 11.8432
rtoes 12.0452
lfemur -32.5658 -0.156055 -19.2736
ltibia 36.883
lfoot -7.18513 1.26579
ltoes 40.9258
113
root -8.32116 15.7378 -0.268715 366.447 84.3688 364.461
lowerback -6.60642 1.39152 -2.23734
upperback 0.673964 2.0665 -0.583061
thorax 4.34647 0.98018 0.863131
lowerneck -11.6073 1.97264 4.34487
upperneck 7.02348 2.15663 -2.06352
head 4.05503 1.06845 -1.18724
rclavicle 7.38299e-015 -5.96354e-015
rhumerus -14.2181 -1.88987 -89.2948
rradius 36.5261
rwrist -3.71233
rhand -21.9191 36.0645
rfingers 7.12502
rthumb 4.48693 6.13201
lclavicle 7.38299e-015 -5.96354e-015
lhumerus -133.491 21.2645 -71.4407
lradius 10.7352
lwrist -119.549
lhand -11.4537 45.7254
lfingers 7.12502
lthumb 14.5834 75.1927
rfemur 11.8377 0.473912 16.7029
rtibia 43.9386
rfoot 19.9655 11.2416
rtoes 9.88602
lfemur -31.2345 0.0978561 -20.4183
ltibia 36.7501
lfoot -7.88417 0.99602
ltoes 40.8455
114
root -8.11318 15.7657 -0.279505 374.376 84.1361 372.733
lowerback -5.94186 1.275 -2.94927
upperback 0.439811 1.96006 -1.01797
thorax 3.72457 0.929419 0.779973
lowerneck -11.0408 2.13164 4.72771
upperneck 6.59264 2.31948 -1.89822
head 4.27895 1.17803 -1.33014
rclavicle -2.40277e-014 1.31198e-014
rhumerus -15.402 -2.13188 -89.8142
rradius 36.1446
rwrist -3.42448
rhand -21.9377 36.0747
rfingers 7.12502
rthumb 4.46889 6.14187
lclavicle -2.40277e-014 1.31198e-014
lhumerus -133.262 22.0965 -71.146
lradius 10.6068
lwrist -119.552
lhand -10.8296 45.7219
lfingers 7.12502
lthumb 15.1847 75.1447
rfemur 10.3238 0.489814 15.7445
rtibia 47.3445
rfoot 21.6777 10.8916
rtoes 1.1498
lfemur -29.8164 0.181439 -21.4918
ltibia 36.4002
lfoot -8.66252 0.939561
ltoes 40.902
115
root -7.90718 15.7958 -0.293226 382.55 84.1433 381.227
lowerback -5.33443 1.05241 -3.57722
upperback 0.34308 1.69858 -1.45715
thorax 3.28782 0.802585 0.640228
lowerneck -10.8294 2.21776 5.13017
upperneck 6.90629 2.40187 -2.04174
head 3.91021 1.2159 -1.29638
rclavicle 6.74004e-015 -4.77083e-015
rhumerus -16.3023 -2.33975 -90.3198
rradius 35.673
rwrist -3.1621
rhand -21.7965 36.0972
rfingers 7.12502
rthumb 4.60531 6.16728
lclavicle 6.74004e-015 -4.77083e-015
lhumerus -133.202 23.341 -70.6141
lradius 10.3928
lwrist -119.041
lhand -10.549 45.7212
lfingers 7.12502
lthumb 15.4549 75.1234
rfemur 8.59713 0.121235 14.8626
rtibia 50.5141
rfoot 24.1329 10.4329
rtoes -4.7518
lfemur -28.3711 0.100072 -22.5734
ltibia 35.8767
lfoot -9.3129 0.756382
ltoes 40.5286
116
root -7.7136 15.8452 -0.304235 384.966 82.8762 383.31
lowerback -5.41265 1.23124 -4.30513
upperback 0.184159 1.9953 -1.67985
thorax 3.14117 0.946607 0.839919
lowerneck -10.7952 2.22563 5.39917
upperneck 6.78009 2.39155 -2.2326
head 3.87129 1.20686 -1.39955
rclavicle -1.10722e-014 -1.39149e-014
rhumerus -16.8135 -2.24801 -90.5522
rradius 35.03
rwrist -2.95893
rhand -21.7228 35.5253
rfingers 7.12502
rthumb 4.67641 5.59689
lclavicle -1.10722e-014 -1.39149e-014
lhumerus -133.628 24.4873 -70.0527
lradius 10.1847
lwrist -118.686
lhand -10.7219 45.783
lfingers 7.12502
lthumb 15.2883 75.198
rfemur 5.76897 0.907995 13.9664
rtibia 53.5784
rfoot 26.6319 9.46655
rtoes -2.87129
lfemur -27.5331 1.05289 -23.4866
ltibia 35.258
lfoot -9.9497 0.909797
ltoes 40.0446
117
root -7.51039 15.8896 -0.310091 388.416 82.4577 386.786
lowerback -5.31166 1.1176 -4.99122
upperback 0.217506 1.89132 -1.81537
thorax 3.10761 0.887057 1.07264
lowerneck -10.9714 2.25807 5.48326
upperneck 6.75691 2.41705 -2.2851
head 3.89548 1.21764 -1.42602
rclavicle 1.64562e-014 5.96354e-015
rhumerus -17.2235 -2.07096 -90.7448
rradius 34.2791
rwrist -2.91806
rhand -21.7664 34.7976
rfingers 7.12502
rthumb 4.63438 4.86833
lclavicle 1.64562e-014 5.96354e-015
lhumerus -134.622 25.0132 -70.3976
lradius 10.0889
lwrist -119.623
lhand -10.89 45.8613
lfingers 7.12502
lthumb 15.1264 75.2885
rfemur 3.8216 1.07372 13.3353
rtibia 56.3277
rfoot 26.7919 8.67115
rtoes -6.02953
lfemur -26.3055 1.57696 -24.2849
ltibia 34.5992
lfoot -10.4301 0.591217
ltoes 39.9897
118
root -7.31001 15.9272 -0.320887 390.291 82.1437 388.634
lowerback -5.21967 1.02023 -5.42319
upperback 0.206328 1.78605 -1.87267
thorax 3.0397 0.831154 1.24399
lowerneck -11.0886 2.29267 5.49085
upperneck 6.75279 2.45651 -2.29743
head 3.915 1.23592 -1.42734
rclavicle -1.41999e-014 7.95139e-016
rhumerus -17.8285 -1.87833 -90.8696
rradius 33.6201
rwrist -2.88805
rhand -21.8312 34.9591
rfingers 7.12502
rthumb 4.57178 5.02847
lclavicle -1.41999e-014 7.95139e-016
lhumerus -132.831 30.2967 -64.9786
lradius 9.76151
lwrist -113.712
lhand -10.5602 46.3407
lfingers 7.12502
lthumb 15.4441 75.7437
rfemur 1.84521 1.18303 12.8752
rtibia 58.7985
rfoot 25.9437 8.53862
rtoes -7.30701
lfemur -25.1759 1.90448 -24.8379
ltibia 33.9815
lfoot -10.9763 0.388975
ltoes 39.9587
119
root -7.12174 15.9553 -0.329913 392.646 82.0094 390.982
lowerback -4.96967 0.861996 -5.98737
upperback 0.104498 1.58471 -1.81578
thorax 2.78999 0.730902 1.59578
lowerneck -11.018 2.39202 5.37584
upperneck 6.99673 2.61655 -2.3422
head 3.98357 1.31172 -1.41163
rclavicle 1.4562e-014 -4.37326e-015
rhumerus -18.6062 -1.69311 -90.8122
rradius 32.8763
rwrist -2.64497
rhand -21.8213 35.2491
rfingers 7.12502
rthumb 4.5813 5.3186
lclavicle 1.4562e-014 -4.37326e-015
lhumerus -130.053 35.1935 -58.7305
lradius 9.17207
lwrist -107.706
lhand -10.6417 46.6882
lfingers 7.12502
lthumb 15.3656 76.0972
rfemur -0.0687502 1.10415 12.46
rtibia 60.883
rfoot 24.1714 8.6278
rtoes 4.00267
lfemur -24.1348 1.86731 -25.3358
ltibia 33.4539
lfoot -11.6415 0.363821
ltoes 39.7712
120
root -6.93382 15.9772 -0.339365 394.941 81.8462 393.27
lowerback -4.66263 0.717095 -6.49121
upperback -0.0751927 1.38721 -1.79702
thorax 2.43368 0.640379 1.8747
lowerneck -10.9363 2.36209 5.25901
upperneck 7.36339 2.59844 -2.30731
head 4.08 1.30506 -1.38304
rclavicle 1.49228e-014 -3.10104e-014
rhumerus -19.5238 -1.6875 -90.7761
rradius 32.0243
rwrist -2.19772
rhand -21.7993 35.093
rfingers 7.12502
rthumb 4.60258 5.163
lclavicle 1.49228e-014 -3.10104e-014
lhumerus -126.295 39.789 -51.79
lradius 8.6239
lwrist -101.729
lhand -10.936 46.8566
lfingers 7.12502
lthumb 15.0821 76.2872
rfemur -1.90708 1.0984 12.0609
rtibia 62.6327
rfoot 21.7812 8.55278
rtoes 6.26555
lfemur -23.1384 1.6974 -25.8301
ltibia 33.0035
lfoot -12.3624 0.468734
ltoes 39.8276
121
root -6.74215 16.0023 -0.352441 395.76 81.8314 394.061
lowerback -4.66018 0.604564 -6.21134
upperback -0.0326977 1.2352 -2.05211
thorax 2.49987 0.568587 1.44648
lowerneck -10.8452 2.3857 5.37621
upperneck 7.2182 2.60156 -2.1486
head 4.0203 1.31821 -1.35403
rclavicle -1.09145e-014 1.59028e-014
rhumerus -19.9942 -2.16732 -91.1446
rradius 30.9998
rwrist -1.48612
rhand -21.8961 35.0057
rfingers 7.12502
rthumb 4.50913 5.07365
lclavicle -1.09145e-014 1.59028e-014
lhumerus -121.605 44.5633 -44.5178
lradius 8.1545
lwrist -95.7259
lhand -11.3028 47.2824
lfingers 7.12502
lthumb 14.7288 76.7391
rfemur -3.66605 1.08653 11.9387
rtibia 64.1224
rfoot 18.5336 8.69731
rtoes 4.13856
lfemur -22.1581 1.60692 -26.0784
ltibia 32.5622
lfoot -12.9621 0.539889
ltoes 39.9292
122
root -6.55345 16.0289 -0.363995 397.127 82.2256 395.488
lowerback -4.46277 0.384039 -5.99633
upperback 0.026958 0.917712 -2.09017
thorax 2.47658 0.412879 1.26509
lowerneck -10.9008 2.38909 5.3351
upperneck 7.25223 2.59571 -2.00537
head 4.03717 1.3222 -1.3031
rclavicle 8.12925e-015 1.31198e-014
rhumerus -20.472 -2.47075 -91.2163
rradius 29.9572
rwrist -0.928247
rhand -21.9207 34.967
rfingers 7.12502
rthumb 4.48531 5.03446
lclavicle 8.12925e-015 1.31198e-014
lhumerus -115.641 48.7927 -35.9018
lradius 7.81595
lwrist -89.5965
lhand -11.6573 47.4787
lfingers 7.12502
lthumb 14.3873 76.9601
rfemur -5.28537 0.721578 12.0645
rtibia 65.4225
rfoot 14.232 8.66766
rtoes 0.282949
lfemur -21.1048 1.4264 -26.1606
ltibia 32.1273
lfoot -13.4385 0.382406
ltoes 40.0141
